<svg width="116" height="54" viewBox="0 0 116 54" fill="none" xmlns="http://www.w3.org/2000/svg">
<rect width="116" height="54" fill="#363636"/>
<path d="M12.3008 18.1523V15.832L14.0586 14.3906H16.4844V39H14.0586V18.1523H12.3008ZM19.1211 20.7188C19.2617 18.8203 20.0469 17.2383 21.4766 15.9727C22.625 15.0117 23.9258 14.4844 25.3789 14.3906V16.6406C24.6055 16.6406 23.8203 16.957 23.0234 17.5898C22.0625 18.4102 21.4648 19.5938 21.2305 21.1406L19.1211 20.7188ZM19.7891 39V36.6797H33.9922V39H19.7891ZM19.7891 35.0977C19.7891 32.1445 21.793 29.6016 25.8008 27.4688C26.0352 27.3516 26.3516 27.1875 26.75 26.9766C27.1953 26.7422 27.4883 26.5898 27.6289 26.5195C29.3164 25.582 30.4297 24.7852 30.9688 24.1289C31.625 23.332 31.9531 22.4648 31.9531 21.5273C31.9531 18.668 30.6758 17.0625 28.1211 16.7109C27.7695 16.6641 27.418 16.6406 27.0664 16.6406V14.3906C30.4883 14.3906 32.7148 15.7266 33.7461 18.3984C34.0977 19.3594 34.2734 20.4023 34.2734 21.5273C34.2266 23.6133 33.3359 25.3125 31.6016 26.625C31.1797 26.9531 30.6992 27.2695 30.1602 27.5742C29.8789 27.7383 29.3867 27.9961 28.6836 28.3477C26.3164 29.5664 24.6992 30.6445 23.832 31.582C22.8711 32.6602 22.3789 33.832 22.3555 35.0977H19.7891Z" fill="#E5E5E5"/>
<line x1="46" y1="12" x2="46" y2="43" stroke="#E5E5E5" stroke-width="2"/>
<path d="M59.6094 21.1719V15.9062C59.6094 15.3021 59.8281 14.7135 60.2656 14.1406C60.8802 13.3698 61.7031 12.9844 62.7344 12.9844V14.0312C61.901 14.0312 61.2917 14.3958 60.9062 15.125C60.7604 15.4062 60.6875 15.6667 60.6875 15.9062V21.1719C60.6875 21.599 60.8698 22.0052 61.2344 22.3906C61.6302 22.8177 62.1302 23.0312 62.7344 23.0312V24.0781C61.5365 24.0781 60.6406 23.5833 60.0469 22.5938C59.7552 22.1042 59.6094 21.6302 59.6094 21.1719ZM63.4844 24.0781V23.0312C63.4844 23.0312 63.6562 23 64 22.9375C64.6771 22.7188 65.1146 22.3073 65.3125 21.7031C65.3646 21.5573 65.401 21.3854 65.4219 21.1875C65.4323 21.1146 65.4375 21.026 65.4375 20.9219L66.4219 21.1562C66.4219 22.0521 66.0573 22.7969 65.3281 23.3906C64.7656 23.849 64.151 24.0781 63.4844 24.0781ZM63.4844 14.0312V12.9844C64.2656 12.974 64.9688 13.3021 65.5938 13.9688C66.1458 14.5729 66.4219 15.2292 66.4219 15.9375L65.4219 16.2031C65.4219 16.0677 65.4167 15.9792 65.4062 15.9375C65.4062 15.7812 65.375 15.6302 65.3125 15.4844C65.2188 15.224 65.0885 14.9948 64.9219 14.7969C64.7656 14.599 64.6042 14.4531 64.4375 14.3594C64.2812 14.2656 64.1302 14.1927 63.9844 14.1406C63.8385 14.0885 63.7188 14.0573 63.625 14.0469L63.4844 14.0312ZM68.6825 21.7344V17.9531C68.6825 17.474 68.9012 17 69.3387 16.5312C69.8596 15.9792 70.5158 15.7031 71.3075 15.7031V16.7031C70.6512 16.7031 70.1773 16.9792 69.8856 17.5312C69.771 17.75 69.7137 17.9583 69.7137 18.1562V21.5312C69.7137 21.9271 69.9012 22.2917 70.2762 22.625C70.5887 22.8854 70.9377 23.0156 71.3231 23.0156V24.0156C70.3544 24.0156 69.6044 23.625 69.0731 22.8438C68.8127 22.4479 68.6825 22.0781 68.6825 21.7344ZM71.9794 24.0156V23.0156C72.5835 23.0156 73.0367 22.7448 73.3387 22.2031C73.4533 21.974 73.5106 21.7604 73.5106 21.5625V18.1562C73.5106 17.7188 73.3231 17.3438 72.9481 17.0312C72.6669 16.8125 72.344 16.7031 71.9794 16.7031V15.7031C72.9273 15.7031 73.6512 16.0885 74.1512 16.8594C74.4012 17.2448 74.5262 17.6094 74.5262 17.9531V21.7344C74.5262 22.224 74.3179 22.7031 73.9012 23.1719C73.3908 23.724 72.7502 24.0052 71.9794 24.0156ZM76.8337 21.7344V17.9531C76.8337 17.474 77.0525 17 77.49 16.5312C78.0108 15.9792 78.6671 15.7031 79.4587 15.7031V16.7031C78.8025 16.7031 78.3285 16.9792 78.0369 17.5312C77.9223 17.75 77.865 17.9583 77.865 18.1562V21.5312C77.865 21.9271 78.0525 22.2917 78.4275 22.625C78.74 22.8854 79.089 23.0156 79.4744 23.0156V24.0156C78.5056 24.0156 77.7556 23.625 77.2244 22.8438C76.964 22.4479 76.8337 22.0781 76.8337 21.7344ZM80.1306 24.0156V23.0156C80.7348 23.0156 81.1879 22.7448 81.49 22.2031C81.6046 21.974 81.6619 21.7604 81.6619 21.5625V18.1562C81.6619 17.7188 81.4744 17.3438 81.0994 17.0312C80.8181 16.8125 80.4952 16.7031 80.1306 16.7031V15.7031C81.0785 15.7031 81.8025 16.0885 82.3025 16.8594C82.5525 17.2448 82.6775 17.6094 82.6775 17.9531V21.7344C82.6775 22.224 82.4692 22.7031 82.0525 23.1719C81.5421 23.724 80.9015 24.0052 80.1306 24.0156ZM86.9069 24V23H88.2975C88.9642 23 89.4329 22.75 89.7038 22.25C89.8079 22.0729 89.86 21.8906 89.86 21.7031V18.0156C89.86 17.6615 89.6829 17.3438 89.3288 17.0625C89.0058 16.8229 88.6256 16.7031 88.1881 16.7031H86.8288V15.7031H88.1881C89.1985 15.7031 89.9694 16.0885 90.5006 16.8594C90.761 17.2448 90.8913 17.6146 90.8913 17.9688V21.75C90.8913 22.2708 90.6673 22.7604 90.2194 23.2188C89.6985 23.7396 89.0527 24 88.2819 24H86.9069ZM85.0319 26.9219V15.7031H86.0944V26.9219H85.0319ZM93.2144 21.7344V17.9375C93.2248 17.4583 93.454 16.9896 93.9019 16.5312C94.4227 15.9896 95.0633 15.7135 95.8237 15.7031V16.6875C95.2717 16.6875 94.829 16.9323 94.4956 17.4219C94.3394 17.651 94.2612 17.8646 94.2612 18.0625V19.2188H98.1831V18.0625C98.1831 17.5625 97.9279 17.1719 97.4175 16.8906C97.1467 16.7344 96.8654 16.6562 96.5737 16.6562V15.7031C97.2821 15.7031 97.9175 15.9583 98.48 16.4688C98.9383 16.9062 99.1727 17.3906 99.1831 17.9219V20.2188H94.2612V21.7344C94.2612 22.0365 94.4435 22.3385 94.8081 22.6406C95.131 22.901 95.4748 23.0312 95.8394 23.0312V24C94.9123 24 94.1779 23.6198 93.6362 22.8594C93.355 22.4531 93.2144 22.0781 93.2144 21.7344ZM96.5737 24V23C97.23 23 97.73 22.7292 98.0737 22.1875C98.1779 22.0312 98.2456 21.8802 98.2769 21.7344L99.1987 22.0781C98.9904 22.8177 98.5425 23.3594 97.855 23.7031C97.4592 23.901 97.0321 24 96.5737 24ZM101.584 24V15.7031H102.631V16.9375C102.85 16.4896 103.215 16.1458 103.725 15.9062C104.037 15.7604 104.36 15.6875 104.694 15.6875H104.866L104.616 16.6875C104.064 16.6979 103.574 17.0104 103.147 17.625C102.803 18.1354 102.631 18.6615 102.631 19.2031V24H101.584ZM59.6562 41V30.0625H60.7188V41H59.6562ZM61.4688 36.1719V35.1875H63.3281C64.349 35.1875 64.9323 34.6979 65.0781 33.7188C65.099 33.5417 65.1094 33.349 65.1094 33.1406C65.1094 31.9427 64.6302 31.2552 63.6719 31.0781C63.474 31.0365 63.2604 31.0156 63.0312 31.0156H61.4688V30.0625H63.3125C65.1979 30.1562 66.1458 31.1667 66.1562 33.0938C66.1458 34.3542 65.7865 35.2135 65.0781 35.6719C65.7344 35.974 66.1146 36.5781 66.2188 37.4844C66.2292 37.5365 66.2344 37.5781 66.2344 37.6094L66.5 41H65.4844L65.25 38.2188C65.1771 37.2812 64.9427 36.6823 64.5469 36.4219C64.2656 36.2448 63.8958 36.1615 63.4375 36.1719H61.4688ZM68.6512 38.7344V34.9531C68.6512 34.474 68.87 34 69.3075 33.5312C69.8283 32.9792 70.4846 32.7031 71.2762 32.7031V33.7031C70.62 33.7031 70.146 33.9792 69.8544 34.5312C69.7398 34.75 69.6825 34.9583 69.6825 35.1562V38.5312C69.6825 38.9271 69.87 39.2917 70.245 39.625C70.5575 39.8854 70.9065 40.0156 71.2919 40.0156V41.0156C70.3231 41.0156 69.5731 40.625 69.0419 39.8438C68.7815 39.4479 68.6512 39.0781 68.6512 38.7344ZM71.9481 41.0156V40.0156C72.5523 40.0156 73.0054 39.7448 73.3075 39.2031C73.4221 38.974 73.4794 38.7604 73.4794 38.5625V35.1562C73.4794 34.7188 73.2919 34.3438 72.9169 34.0312C72.6356 33.8125 72.3127 33.7031 71.9481 33.7031V32.7031C72.896 32.7031 73.62 33.0885 74.12 33.8594C74.37 34.2448 74.495 34.6094 74.495 34.9531V38.7344C74.495 39.224 74.2867 39.7031 73.87 40.1719C73.3596 40.724 72.719 41.0052 71.9481 41.0156ZM76.7712 39.0625C76.7712 39.625 77.0473 40.1042 77.5994 40.5C78.0681 40.8229 78.6202 40.9844 79.2556 40.9844V40.0156C78.4119 40.0156 77.9119 39.7292 77.7556 39.1562C77.7244 39.0417 77.7087 38.9271 77.7087 38.8125V38.3125C77.7192 38.0729 77.7817 37.8958 77.8962 37.7812C78.0525 37.625 78.6723 37.4219 79.7556 37.1719C80.6306 36.9635 81.214 36.7865 81.5056 36.6406V38.6094C81.5056 39.474 81.0733 39.9375 80.2087 40C80.1358 40.0104 80.0681 40.0156 80.0056 40.0156V40.9844C80.7452 40.9844 81.3233 40.8073 81.74 40.4531C81.7504 40.4427 81.7608 40.4323 81.7712 40.4219C82.0629 40.7969 82.4483 40.9844 82.9275 40.9844V40C82.6671 39.9792 82.5317 39.8073 82.5212 39.4844V35.1094C82.5212 34.4115 82.2608 33.8177 81.74 33.3281C81.2712 32.8906 80.6931 32.6719 80.0056 32.6719V33.6094C80.5056 33.6094 80.9067 33.8177 81.2087 34.2344C81.3962 34.4948 81.49 34.7917 81.49 35.125V35.4062C81.5004 35.6667 80.8702 35.9583 79.5994 36.2812C78.4119 36.5833 77.7296 36.7812 77.5525 36.875C77.0421 37.1667 76.7817 37.651 76.7712 38.3281V39.0625ZM76.8806 34.75L77.8025 35.1094C77.8025 34.5156 78.0577 34.0833 78.5681 33.8125C78.7869 33.6979 79.0212 33.6406 79.2712 33.6406V32.6719C78.5629 32.6719 77.9587 32.9219 77.4587 33.4219C77.0629 33.8177 76.8702 34.2604 76.8806 34.75ZM85.0788 38.7344V34.9375C85.0788 34.3646 85.3444 33.8438 85.8756 33.375C86.3652 32.9375 86.9173 32.7188 87.5319 32.7188H89.0163V33.7031H87.5475C87.0788 33.7135 86.6829 33.9219 86.36 34.3281C86.1829 34.5677 86.0944 34.7969 86.0944 35.0156V38.7031C86.0944 39.099 86.3131 39.4427 86.7506 39.7344C87.0215 39.9115 87.2871 40 87.5475 40H89.0163V41H87.5788C86.6621 41 85.9538 40.6094 85.4538 39.8281C85.2038 39.4427 85.0788 39.0781 85.0788 38.7344ZM89.7506 41V30H90.8131V41H89.7506Z" fill="#E5E5E5"/>
</svg>
