<svg width="196" height="54" viewBox="0 0 196 54" fill="none" xmlns="http://www.w3.org/2000/svg">
<rect width="196" height="54" fill="#363636"/>
<path d="M12.3008 18.1523V15.832L14.0586 14.3906H16.4844V39H14.0586V18.1523H12.3008ZM19.1211 20.7188C19.2617 18.8203 20.0469 17.2383 21.4766 15.9727C22.625 15.0117 23.9258 14.4844 25.3789 14.3906V16.6406C24.6055 16.6406 23.8203 16.957 23.0234 17.5898C22.0625 18.4102 21.4648 19.5938 21.2305 21.1406L19.1211 20.7188ZM19.7891 39V36.6797H33.9922V39H19.7891ZM19.7891 35.0977C19.7891 32.1445 21.793 29.6016 25.8008 27.4688C26.0352 27.3516 26.3516 27.1875 26.75 26.9766C27.1953 26.7422 27.4883 26.5898 27.6289 26.5195C29.3164 25.582 30.4297 24.7852 30.9688 24.1289C31.625 23.332 31.9531 22.4648 31.9531 21.5273C31.9531 18.668 30.6758 17.0625 28.1211 16.7109C27.7695 16.6641 27.418 16.6406 27.0664 16.6406V14.3906C30.4883 14.3906 32.7148 15.7266 33.7461 18.3984C34.0977 19.3594 34.2734 20.4023 34.2734 21.5273C34.2266 23.6133 33.3359 25.3125 31.6016 26.625C31.1797 26.9531 30.6992 27.2695 30.1602 27.5742C29.8789 27.7383 29.3867 27.9961 28.6836 28.3477C26.3164 29.5664 24.6992 30.6445 23.832 31.582C22.8711 32.6602 22.3789 33.832 22.3555 35.0977H19.7891Z" fill="#E5E5E5"/>
<line x1="46" y1="12" x2="46" y2="43" stroke="#E5E5E5" stroke-width="2"/>
<path d="M56.9141 29.7578V21.8594C56.9141 20.9531 57.2422 20.0703 57.8984 19.2109C58.8203 18.0547 60.0547 17.4766 61.6016 17.4766V19.0469C60.3516 19.0469 59.4375 19.5938 58.8594 20.6875C58.6406 21.1094 58.5312 21.5 58.5312 21.8594V29.7578C58.5312 30.3984 58.8047 31.0078 59.3516 31.5859C59.9453 32.2266 60.6953 32.5469 61.6016 32.5469V34.1172C59.8047 34.1172 58.4609 33.375 57.5703 31.8906C57.1328 31.1562 56.9141 30.4453 56.9141 29.7578ZM62.7266 34.1172V32.5469C62.7266 32.5469 62.9844 32.5 63.5 32.4062C64.5156 32.0781 65.1719 31.4609 65.4688 30.5547C65.5469 30.3359 65.6016 30.0781 65.6328 29.7812C65.6484 29.6719 65.6562 29.5391 65.6562 29.3828L67.1328 29.7344C67.1328 31.0781 66.5859 32.1953 65.4922 33.0859C64.6484 33.7734 63.7266 34.1172 62.7266 34.1172ZM62.7266 19.0469V17.4766C63.8984 17.4609 64.9531 17.9531 65.8906 18.9531C66.7188 19.8594 67.1328 20.8438 67.1328 21.9062L65.6328 22.3047C65.6328 22.1016 65.625 21.9688 65.6094 21.9062C65.6094 21.6719 65.5625 21.4453 65.4688 21.2266C65.3281 20.8359 65.1328 20.4922 64.8828 20.1953C64.6484 19.8984 64.4062 19.6797 64.1562 19.5391C63.9219 19.3984 63.6953 19.2891 63.4766 19.2109C63.2578 19.1328 63.0781 19.0859 62.9375 19.0703L62.7266 19.0469ZM70.5238 30.6016V24.9297C70.5238 24.2109 70.8519 23.5 71.5081 22.7969C72.2894 21.9688 73.2738 21.5547 74.4613 21.5547V23.0547C73.4769 23.0547 72.7659 23.4688 72.3284 24.2969C72.1566 24.625 72.0706 24.9375 72.0706 25.2344V30.2969C72.0706 30.8906 72.3519 31.4375 72.9144 31.9375C73.3831 32.3281 73.9066 32.5234 74.4847 32.5234V34.0234C73.0316 34.0234 71.9066 33.4375 71.1097 32.2656C70.7191 31.6719 70.5238 31.1172 70.5238 30.6016ZM75.4691 34.0234V32.5234C76.3753 32.5234 77.055 32.1172 77.5081 31.3047C77.68 30.9609 77.7659 30.6406 77.7659 30.3438V25.2344C77.7659 24.5781 77.4847 24.0156 76.9222 23.5469C76.5003 23.2188 76.0159 23.0547 75.4691 23.0547V21.5547C76.8909 21.5547 77.9769 22.1328 78.7269 23.2891C79.1019 23.8672 79.2894 24.4141 79.2894 24.9297V30.6016C79.2894 31.3359 78.9769 32.0547 78.3519 32.7578C77.5863 33.5859 76.6253 34.0078 75.4691 34.0234ZM82.7506 30.6016V24.9297C82.7506 24.2109 83.0788 23.5 83.735 22.7969C84.5163 21.9688 85.5006 21.5547 86.6881 21.5547V23.0547C85.7038 23.0547 84.9928 23.4688 84.5553 24.2969C84.3834 24.625 84.2975 24.9375 84.2975 25.2344V30.2969C84.2975 30.8906 84.5788 31.4375 85.1413 31.9375C85.61 32.3281 86.1334 32.5234 86.7116 32.5234V34.0234C85.2584 34.0234 84.1334 33.4375 83.3366 32.2656C82.9459 31.6719 82.7506 31.1172 82.7506 30.6016ZM87.6959 34.0234V32.5234C88.6022 32.5234 89.2819 32.1172 89.735 31.3047C89.9069 30.9609 89.9928 30.6406 89.9928 30.3438V25.2344C89.9928 24.5781 89.7116 24.0156 89.1491 23.5469C88.7272 23.2188 88.2428 23.0547 87.6959 23.0547V21.5547C89.1178 21.5547 90.2038 22.1328 90.9538 23.2891C91.3288 23.8672 91.5163 24.4141 91.5163 24.9297V30.6016C91.5163 31.3359 91.2038 32.0547 90.5788 32.7578C89.8131 33.5859 88.8522 34.0078 87.6959 34.0234ZM97.8603 34V32.5H99.9463C100.946 32.5 101.649 32.125 102.056 31.375C102.212 31.1094 102.29 30.8359 102.29 30.5547V25.0234C102.29 24.4922 102.024 24.0156 101.493 23.5938C101.009 23.2344 100.438 23.0547 99.7822 23.0547H97.7431V21.5547H99.7822C101.298 21.5547 102.454 22.1328 103.251 23.2891C103.642 23.8672 103.837 24.4219 103.837 24.9531V30.625C103.837 31.4062 103.501 32.1406 102.829 32.8281C102.048 33.6094 101.079 34 99.9228 34H97.8603ZM95.0478 38.3828V21.5547H96.6416V38.3828H95.0478ZM107.322 30.6016V24.9062C107.337 24.1875 107.681 23.4844 108.353 22.7969C109.134 21.9844 110.095 21.5703 111.236 21.5547V23.0312C110.408 23.0312 109.743 23.3984 109.243 24.1328C109.009 24.4766 108.892 24.7969 108.892 25.0938V26.8281H114.775V25.0938C114.775 24.3438 114.392 23.7578 113.626 23.3359C113.22 23.1016 112.798 22.9844 112.361 22.9844V21.5547C113.423 21.5547 114.376 21.9375 115.22 22.7031C115.908 23.3594 116.259 24.0859 116.275 24.8828V28.3281H108.892V30.6016C108.892 31.0547 109.165 31.5078 109.712 31.9609C110.197 32.3516 110.712 32.5469 111.259 32.5469V34C109.868 34 108.767 33.4297 107.954 32.2891C107.533 31.6797 107.322 31.1172 107.322 30.6016ZM112.361 34V32.5C113.345 32.5 114.095 32.0938 114.611 31.2812C114.767 31.0469 114.868 30.8203 114.915 30.6016L116.298 31.1172C115.986 32.2266 115.314 33.0391 114.283 33.5547C113.689 33.8516 113.048 34 112.361 34ZM119.877 34V21.5547H121.447V23.4062C121.775 22.7344 122.322 22.2188 123.088 21.8594C123.556 21.6406 124.041 21.5312 124.541 21.5312H124.798L124.423 23.0312C123.595 23.0469 122.861 23.5156 122.22 24.4375C121.705 25.2031 121.447 25.9922 121.447 26.8047V34H119.877ZM135.096 34V17.5938H136.69V34H135.096ZM137.815 26.7578V25.2812H140.604C142.135 25.2812 143.01 24.5469 143.229 23.0781C143.26 22.8125 143.276 22.5234 143.276 22.2109C143.276 20.4141 142.557 19.3828 141.119 19.1172C140.823 19.0547 140.502 19.0234 140.158 19.0234H137.815V17.5938H140.58C143.408 17.7344 144.83 19.25 144.846 22.1406C144.83 24.0312 144.291 25.3203 143.229 26.0078C144.213 26.4609 144.783 27.3672 144.94 28.7266C144.955 28.8047 144.963 28.8672 144.963 28.9141L145.362 34H143.838L143.487 29.8281C143.377 28.4219 143.026 27.5234 142.432 27.1328C142.01 26.8672 141.455 26.7422 140.768 26.7578H137.815ZM148.588 30.6016V24.9297C148.588 24.2109 148.917 23.5 149.573 22.7969C150.354 21.9688 151.338 21.5547 152.526 21.5547V23.0547C151.542 23.0547 150.831 23.4688 150.393 24.2969C150.221 24.625 150.135 24.9375 150.135 25.2344V30.2969C150.135 30.8906 150.417 31.4375 150.979 31.9375C151.448 32.3281 151.971 32.5234 152.549 32.5234V34.0234C151.096 34.0234 149.971 33.4375 149.174 32.2656C148.784 31.6719 148.588 31.1172 148.588 30.6016ZM153.534 34.0234V32.5234C154.44 32.5234 155.12 32.1172 155.573 31.3047C155.745 30.9609 155.831 30.6406 155.831 30.3438V25.2344C155.831 24.5781 155.549 24.0156 154.987 23.5469C154.565 23.2188 154.081 23.0547 153.534 23.0547V21.5547C154.956 21.5547 156.042 22.1328 156.792 23.2891C157.167 23.8672 157.354 24.4141 157.354 24.9297V30.6016C157.354 31.3359 157.042 32.0547 156.417 32.7578C155.651 33.5859 154.69 34.0078 153.534 34.0234ZM160.768 31.0938C160.768 31.9375 161.183 32.6562 162.011 33.25C162.714 33.7344 163.542 33.9766 164.495 33.9766V32.5234C163.229 32.5234 162.479 32.0938 162.245 31.2344C162.198 31.0625 162.175 30.8906 162.175 30.7188V29.9688C162.19 29.6094 162.284 29.3438 162.456 29.1719C162.69 28.9375 163.62 28.6328 165.245 28.2578C166.558 27.9453 167.433 27.6797 167.87 27.4609V30.4141C167.87 31.7109 167.222 32.4062 165.925 32.5C165.815 32.5156 165.714 32.5234 165.62 32.5234V33.9766C166.729 33.9766 167.597 33.7109 168.222 33.1797C168.237 33.1641 168.253 33.1484 168.268 33.1328C168.706 33.6953 169.284 33.9766 170.003 33.9766V32.5C169.612 32.4688 169.409 32.2109 169.393 31.7266V25.1641C169.393 24.1172 169.003 23.2266 168.222 22.4922C167.518 21.8359 166.651 21.5078 165.62 21.5078V22.9141C166.37 22.9141 166.972 23.2266 167.425 23.8516C167.706 24.2422 167.847 24.6875 167.847 25.1875V25.6094C167.862 26 166.917 26.4375 165.011 26.9219C163.229 27.375 162.206 27.6719 161.94 27.8125C161.175 28.25 160.784 28.9766 160.768 29.9922V31.0938ZM160.933 24.625L162.315 25.1641C162.315 24.2734 162.698 23.625 163.464 23.2188C163.792 23.0469 164.143 22.9609 164.518 22.9609V21.5078C163.456 21.5078 162.55 21.8828 161.8 22.6328C161.206 23.2266 160.917 23.8906 160.933 24.625ZM173.23 30.6016V24.9062C173.23 24.0469 173.628 23.2656 174.425 22.5625C175.159 21.9062 175.988 21.5781 176.909 21.5781H179.136V23.0547H176.933C176.23 23.0703 175.636 23.3828 175.152 23.9922C174.886 24.3516 174.753 24.6953 174.753 25.0234V30.5547C174.753 31.1484 175.081 31.6641 175.738 32.1016C176.144 32.3672 176.542 32.5 176.933 32.5H179.136V34H176.98C175.605 34 174.542 33.4141 173.792 32.2422C173.417 31.6641 173.23 31.1172 173.23 30.6016ZM180.238 34V17.5H181.831V34H180.238Z" fill="#E5E5E5"/>
</svg>
