<svg width="113" height="70" viewBox="0 0 113 70" fill="none" xmlns="http://www.w3.org/2000/svg">
<rect width="113" height="70" fill="#363636"/>
<path d="M57.2891 17.6719V13.6875L59.8281 11.6562H64.2031V39H59.8281V17.6719H57.2891ZM66.7812 18.6484C66.8594 16.6432 67.7057 14.9245 69.3203 13.4922C70.6484 12.3203 72.1589 11.7083 73.8516 11.6562V15.6797C73.0964 15.6797 72.3802 16.0182 71.7031 16.6953C71.0521 17.3724 70.6745 18.2708 70.5703 19.3906L66.7812 18.6484ZM67.6016 39V34.7422H83.3828V39H67.6016ZM67.6016 32.8281C67.6016 30.5365 69.0859 28.401 72.0547 26.4219C72.4193 26.1615 72.9401 25.8229 73.6172 25.4062C74.2422 25.0156 74.6719 24.7422 74.9062 24.5859C75.1146 24.4557 75.4271 24.2474 75.8438 23.9609C77.6146 22.7891 78.7214 21.8255 79.1641 21.0703C79.5026 20.5495 79.6719 20.0156 79.6719 19.4688C79.6719 17.6198 78.9036 16.4349 77.3672 15.9141C76.8984 15.7578 76.4036 15.6797 75.8828 15.6797V11.6562C79.3724 11.6562 81.7292 12.9974 82.9531 15.6797C83.4479 16.7995 83.6953 18.0495 83.6953 19.4297C83.6953 21.5391 82.9141 23.3229 81.3516 24.7812C80.7266 25.3542 79.9453 25.9531 79.0078 26.5781C78.6172 26.8385 78.0052 27.2161 77.1719 27.7109C75.1146 28.9089 73.7865 29.9115 73.1875 30.7188C72.6927 31.3958 72.4323 32.099 72.4062 32.8281H67.6016ZM95.4922 39.0391V35.0156C97.3672 34.9375 98.5651 34.1953 99.0859 32.7891C99.2422 32.3464 99.3203 31.8646 99.3203 31.3438C99.3203 29.2865 98.2786 28.0234 96.1953 27.5547C95.5182 27.4245 94.763 27.3594 93.9297 27.3594V23.3359C97.263 23.3359 99.0469 22.2422 99.2812 20.0547C99.3073 19.8203 99.3203 19.599 99.3203 19.3906C99.3203 17.5417 98.4609 16.3698 96.7422 15.875C96.3255 15.7708 95.9089 15.7057 95.4922 15.6797V11.6562C97.9401 11.6562 99.9193 12.4635 101.43 14.0781C102.732 15.4583 103.383 17.2031 103.383 19.3125C103.357 22.0729 102.432 24.0911 100.609 25.3672C102.432 26.6693 103.357 28.6745 103.383 31.3828C103.383 34.3776 102.172 36.5651 99.75 37.9453C98.4479 38.6745 97.0286 39.0391 95.4922 39.0391ZM86.2734 32.0469L90.0625 31.3047C90.2188 33.1797 91.0781 34.3646 92.6406 34.8594C92.9271 34.9635 93.1615 35.0156 93.3438 35.0156V39.0391C91.1562 38.987 89.3333 38.0625 87.875 36.2656C86.8594 34.9635 86.3255 33.5573 86.2734 32.0469ZM86.2734 18.6484C86.3516 16.6432 87.1979 14.9245 88.8125 13.4922C90.1406 12.3203 91.651 11.7083 93.3438 11.6562V15.6797C91.3646 16.0182 90.2708 17.2161 90.0625 19.2734C90.0625 19.3255 90.0625 19.3646 90.0625 19.3906L86.2734 18.6484Z" fill="#E5E5E5"/>
<path d="M21.6094 56.1719V50.9062C21.6094 50.3021 21.8281 49.7135 22.2656 49.1406C22.8802 48.3698 23.7031 47.9844 24.7344 47.9844V49.0312C23.901 49.0312 23.2917 49.3958 22.9062 50.125C22.7604 50.4062 22.6875 50.6667 22.6875 50.9062V56.1719C22.6875 56.599 22.8698 57.0052 23.2344 57.3906C23.6302 57.8177 24.1302 58.0312 24.7344 58.0312V59.0781C23.5365 59.0781 22.6406 58.5833 22.0469 57.5938C21.7552 57.1042 21.6094 56.6302 21.6094 56.1719ZM25.4844 59.0781V58.0312C25.4844 58.0312 25.6562 58 26 57.9375C26.6771 57.7188 27.1146 57.3073 27.3125 56.7031C27.3646 56.5573 27.401 56.3854 27.4219 56.1875C27.4323 56.1146 27.4375 56.026 27.4375 55.9219L28.4219 56.1562C28.4219 57.0521 28.0573 57.7969 27.3281 58.3906C26.7656 58.849 26.151 59.0781 25.4844 59.0781ZM25.4844 49.0312V47.9844C26.2656 47.974 26.9688 48.3021 27.5938 48.9688C28.1458 49.5729 28.4219 50.2292 28.4219 50.9375L27.4219 51.2031C27.4219 51.0677 27.4167 50.9792 27.4062 50.9375C27.4062 50.7812 27.375 50.6302 27.3125 50.4844C27.2188 50.224 27.0885 49.9948 26.9219 49.7969C26.7656 49.599 26.6042 49.4531 26.4375 49.3594C26.2812 49.2656 26.1302 49.1927 25.9844 49.1406C25.8385 49.0885 25.7188 49.0573 25.625 49.0469L25.4844 49.0312ZM30.3625 56.7344V52.9531C30.3625 52.474 30.5813 52 31.0188 51.5312C31.5396 50.9792 32.1958 50.7031 32.9875 50.7031V51.7031C32.3313 51.7031 31.8573 51.9792 31.5656 52.5312C31.451 52.75 31.3938 52.9583 31.3938 53.1562V56.5312C31.3938 56.9271 31.5813 57.2917 31.9563 57.625C32.2688 57.8854 32.6177 58.0156 33.0031 58.0156V59.0156C32.0344 59.0156 31.2844 58.625 30.7531 57.8438C30.4927 57.4479 30.3625 57.0781 30.3625 56.7344ZM33.6594 59.0156V58.0156C34.2635 58.0156 34.7167 57.7448 35.0188 57.2031C35.1333 56.974 35.1906 56.7604 35.1906 56.5625V53.1562C35.1906 52.7188 35.0031 52.3438 34.6281 52.0312C34.3469 51.8125 34.024 51.7031 33.6594 51.7031V50.7031C34.6073 50.7031 35.3313 51.0885 35.8313 51.8594C36.0813 52.2448 36.2063 52.6094 36.2063 52.9531V56.7344C36.2063 57.224 35.9979 57.7031 35.5813 58.1719C35.0708 58.724 34.4302 59.0052 33.6594 59.0156ZM38.1938 56.7344V52.9531C38.1938 52.474 38.4125 52 38.85 51.5312C39.3708 50.9792 40.0271 50.7031 40.8188 50.7031V51.7031C40.1625 51.7031 39.6885 51.9792 39.3969 52.5312C39.2823 52.75 39.225 52.9583 39.225 53.1562V56.5312C39.225 56.9271 39.4125 57.2917 39.7875 57.625C40.1 57.8854 40.449 58.0156 40.8344 58.0156V59.0156C39.8656 59.0156 39.1156 58.625 38.5844 57.8438C38.324 57.4479 38.1938 57.0781 38.1938 56.7344ZM41.4906 59.0156V58.0156C42.0948 58.0156 42.5479 57.7448 42.85 57.2031C42.9646 56.974 43.0219 56.7604 43.0219 56.5625V53.1562C43.0219 52.7188 42.8344 52.3438 42.4594 52.0312C42.1781 51.8125 41.8552 51.7031 41.4906 51.7031V50.7031C42.4385 50.7031 43.1625 51.0885 43.6625 51.8594C43.9125 52.2448 44.0375 52.6094 44.0375 52.9531V56.7344C44.0375 57.224 43.8292 57.7031 43.4125 58.1719C42.9021 58.724 42.2615 59.0052 41.4906 59.0156ZM47.9469 59V58H49.3375C50.0042 58 50.4729 57.75 50.7437 57.25C50.8479 57.0729 50.9 56.8906 50.9 56.7031V53.0156C50.9 52.6615 50.7229 52.3438 50.3687 52.0625C50.0458 51.8229 49.6656 51.7031 49.2281 51.7031H47.8687V50.7031H49.2281C50.2385 50.7031 51.0094 51.0885 51.5406 51.8594C51.801 52.2448 51.9312 52.6146 51.9312 52.9688V56.75C51.9312 57.2708 51.7073 57.7604 51.2594 58.2188C50.7385 58.7396 50.0927 59 49.3219 59H47.9469ZM46.0719 61.9219V50.7031H47.1344V61.9219H46.0719ZM53.9344 56.7344V52.9375C53.9448 52.4583 54.174 51.9896 54.6219 51.5312C55.1427 50.9896 55.7833 50.7135 56.5438 50.7031V51.6875C55.9917 51.6875 55.549 51.9323 55.2156 52.4219C55.0594 52.651 54.9813 52.8646 54.9813 53.0625V54.2188H58.9031V53.0625C58.9031 52.5625 58.6479 52.1719 58.1375 51.8906C57.8667 51.7344 57.5854 51.6562 57.2938 51.6562V50.7031C58.0021 50.7031 58.6375 50.9583 59.2 51.4688C59.6583 51.9062 59.8927 52.3906 59.9031 52.9219V55.2188H54.9813V56.7344C54.9813 57.0365 55.1635 57.3385 55.5281 57.6406C55.851 57.901 56.1948 58.0312 56.5594 58.0312V59C55.6323 59 54.8979 58.6198 54.3563 57.8594C54.075 57.4531 53.9344 57.0781 53.9344 56.7344ZM57.2938 59V58C57.95 58 58.45 57.7292 58.7938 57.1875C58.8979 57.0312 58.9656 56.8802 58.9969 56.7344L59.9188 57.0781C59.7104 57.8177 59.2625 58.3594 58.575 58.7031C58.1792 58.901 57.7521 59 57.2938 59ZM61.9844 59V50.7031H63.0312V51.9375C63.25 51.4896 63.6146 51.1458 64.125 50.9062C64.4375 50.7604 64.7604 50.6875 65.0938 50.6875H65.2656L65.0156 51.6875C64.4635 51.6979 63.974 52.0104 63.5469 52.625C63.2031 53.1354 63.0312 53.6615 63.0312 54.2031V59H61.9844ZM71.4906 59V48.0625H72.5531V59H71.4906ZM73.3031 54.1719V53.1875H75.1625C76.1833 53.1875 76.7667 52.6979 76.9125 51.7188C76.9333 51.5417 76.9437 51.349 76.9437 51.1406C76.9437 49.9427 76.4646 49.2552 75.5062 49.0781C75.3083 49.0365 75.0948 49.0156 74.8656 49.0156H73.3031V48.0625H75.1469C77.0323 48.1562 77.9802 49.1667 77.9906 51.0938C77.9802 52.3542 77.6208 53.2135 76.9125 53.6719C77.5687 53.974 77.949 54.5781 78.0531 55.4844C78.0635 55.5365 78.0687 55.5781 78.0687 55.6094L78.3344 59H77.3187L77.0844 56.2188C77.0115 55.2812 76.7771 54.6823 76.3812 54.4219C76.1 54.2448 75.7302 54.1615 75.2719 54.1719H73.3031ZM80.1656 56.7344V52.9531C80.1656 52.474 80.3844 52 80.8219 51.5312C81.3427 50.9792 81.999 50.7031 82.7906 50.7031V51.7031C82.1344 51.7031 81.6604 51.9792 81.3688 52.5312C81.2542 52.75 81.1969 52.9583 81.1969 53.1562V56.5312C81.1969 56.9271 81.3844 57.2917 81.7594 57.625C82.0719 57.8854 82.4208 58.0156 82.8063 58.0156V59.0156C81.8375 59.0156 81.0875 58.625 80.5563 57.8438C80.2958 57.4479 80.1656 57.0781 80.1656 56.7344ZM83.4625 59.0156V58.0156C84.0667 58.0156 84.5198 57.7448 84.8219 57.2031C84.9365 56.974 84.9938 56.7604 84.9938 56.5625V53.1562C84.9938 52.7188 84.8063 52.3438 84.4313 52.0312C84.15 51.8125 83.8271 51.7031 83.4625 51.7031V50.7031C84.4104 50.7031 85.1344 51.0885 85.6344 51.8594C85.8844 52.2448 86.0094 52.6094 86.0094 52.9531V56.7344C86.0094 57.224 85.801 57.7031 85.3844 58.1719C84.874 58.724 84.2333 59.0052 83.4625 59.0156ZM87.9656 57.0625C87.9656 57.625 88.2417 58.1042 88.7937 58.5C89.2625 58.8229 89.8146 58.9844 90.45 58.9844V58.0156C89.6062 58.0156 89.1062 57.7292 88.95 57.1562C88.9187 57.0417 88.9031 56.9271 88.9031 56.8125V56.3125C88.9135 56.0729 88.976 55.8958 89.0906 55.7812C89.2469 55.625 89.8667 55.4219 90.95 55.1719C91.825 54.9635 92.4083 54.7865 92.7 54.6406V56.6094C92.7 57.474 92.2677 57.9375 91.4031 58C91.3302 58.0104 91.2625 58.0156 91.2 58.0156V58.9844C91.9396 58.9844 92.5177 58.8073 92.9344 58.4531C92.9448 58.4427 92.9552 58.4323 92.9656 58.4219C93.2573 58.7969 93.6427 58.9844 94.1219 58.9844V58C93.8615 57.9792 93.726 57.8073 93.7156 57.4844V53.1094C93.7156 52.4115 93.4552 51.8177 92.9344 51.3281C92.4656 50.8906 91.8875 50.6719 91.2 50.6719V51.6094C91.7 51.6094 92.101 51.8177 92.4031 52.2344C92.5906 52.4948 92.6844 52.7917 92.6844 53.125V53.4062C92.6948 53.6667 92.0646 53.9583 90.7937 54.2812C89.6062 54.5833 88.924 54.7812 88.7469 54.875C88.2365 55.1667 87.976 55.651 87.9656 56.3281V57.0625ZM88.075 52.75L88.9969 53.1094C88.9969 52.5156 89.2521 52.0833 89.7625 51.8125C89.9812 51.6979 90.2156 51.6406 90.4656 51.6406V50.6719C89.7573 50.6719 89.1531 50.9219 88.6531 51.4219C88.2573 51.8177 88.0646 52.2604 88.075 52.75ZM95.9531 56.7344V52.9375C95.9531 52.3646 96.2188 51.8438 96.75 51.375C97.2396 50.9375 97.7917 50.7188 98.4062 50.7188H99.8906V51.7031H98.4219C97.9531 51.7135 97.5573 51.9219 97.2344 52.3281C97.0573 52.5677 96.9688 52.7969 96.9688 53.0156V56.7031C96.9688 57.099 97.1875 57.4427 97.625 57.7344C97.8958 57.9115 98.1615 58 98.4219 58H99.8906V59H98.4531C97.5365 59 96.8281 58.6094 96.3281 57.8281C96.0781 57.4427 95.9531 57.0781 95.9531 56.7344ZM100.625 59V48H101.688V59H100.625Z" fill="#E5E5E5"/>
</svg>
