<svg width="95" height="70" viewBox="0 0 95 70" fill="none" xmlns="http://www.w3.org/2000/svg">
<rect width="95" height="70" fill="#363636"/>
<path d="M21.5469 16.4062V11.625L24.5938 9.1875H29.8438V42H24.5938V16.4062H21.5469ZM32.9375 17.5781C33.0312 15.1719 34.0469 13.1094 35.9844 11.3906C37.5781 9.98438 39.3906 9.25 41.4219 9.1875V14.0156C40.5156 14.0156 39.6562 14.4219 38.8438 15.2344C38.0625 16.0469 37.6094 17.125 37.4844 18.4688L32.9375 17.5781ZM33.9219 42V36.8906H52.8594V42H33.9219ZM33.9219 34.5938C33.9219 31.8438 35.7031 29.2812 39.2656 26.9062C39.7031 26.5938 40.3281 26.1875 41.1406 25.6875C41.8906 25.2188 42.4062 24.8906 42.6875 24.7031C42.9375 24.5469 43.3125 24.2969 43.8125 23.9531C45.9375 22.5469 47.2656 21.3906 47.7969 20.4844C48.2031 19.8594 48.4062 19.2188 48.4062 18.5625C48.4062 16.3438 47.4844 14.9219 45.6406 14.2969C45.0781 14.1094 44.4844 14.0156 43.8594 14.0156V9.1875C48.0469 9.1875 50.875 10.7969 52.3438 14.0156C52.9375 15.3594 53.2344 16.8594 53.2344 18.5156C53.2344 21.0469 52.2969 23.1875 50.4219 24.9375C49.6719 25.625 48.7344 26.3438 47.6094 27.0938C47.1406 27.4062 46.4062 27.8594 45.4062 28.4531C42.9375 29.8906 41.3438 31.0938 40.625 32.0625C40.0312 32.875 39.7188 33.7188 39.6875 34.5938H33.9219ZM67.3906 42.0469V37.2188C69.6406 37.125 71.0781 36.2344 71.7031 34.5469C71.8906 34.0156 71.9844 33.4375 71.9844 32.8125C71.9844 30.3438 70.7344 28.8281 68.2344 28.2656C67.4219 28.1094 66.5156 28.0312 65.5156 28.0312V23.2031C69.5156 23.2031 71.6562 21.8906 71.9375 19.2656C71.9688 18.9844 71.9844 18.7188 71.9844 18.4688C71.9844 16.25 70.9531 14.8437 68.8906 14.25C68.3906 14.125 67.8906 14.0469 67.3906 14.0156V9.1875C70.3281 9.1875 72.7031 10.1562 74.5156 12.0938C76.0781 13.75 76.8594 15.8438 76.8594 18.375C76.8281 21.6875 75.7188 24.1094 73.5312 25.6406C75.7188 27.2031 76.8281 29.6094 76.8594 32.8594C76.8594 36.4531 75.4062 39.0781 72.5 40.7344C70.9375 41.6094 69.2344 42.0469 67.3906 42.0469ZM56.3281 33.6562L60.875 32.7656C61.0625 35.0156 62.0938 36.4375 63.9688 37.0312C64.3125 37.1562 64.5938 37.2188 64.8125 37.2188V42.0469C62.1875 41.9844 60 40.875 58.25 38.7188C57.0312 37.1562 56.3906 35.4688 56.3281 33.6562ZM56.3281 17.5781C56.4219 15.1719 57.4375 13.1094 59.375 11.3906C60.9688 9.98438 62.7812 9.25 64.8125 9.1875V14.0156C62.4375 14.4219 61.125 15.8594 60.875 18.3281C60.875 18.3906 60.875 18.4375 60.875 18.4688L56.3281 17.5781Z" fill="#E5E5E5"/>
<path d="M13.5332 58.5254V53.918C13.5332 53.3893 13.7246 52.8743 14.1074 52.373C14.6452 51.6986 15.3652 51.3613 16.2676 51.3613V52.2773C15.5384 52.2773 15.0052 52.5964 14.668 53.2344C14.5404 53.4805 14.4766 53.7083 14.4766 53.918V58.5254C14.4766 58.8991 14.6361 59.2546 14.9551 59.5918C15.3014 59.9655 15.7389 60.1523 16.2676 60.1523V61.0684C15.2194 61.0684 14.4355 60.6354 13.916 59.7695C13.6608 59.3411 13.5332 58.9264 13.5332 58.5254ZM16.9238 61.0684V60.1523C16.9238 60.1523 17.0742 60.125 17.375 60.0703C17.9674 59.8789 18.3503 59.5189 18.5234 58.9902C18.569 58.8626 18.6009 58.7122 18.6191 58.5391C18.6283 58.4753 18.6328 58.3978 18.6328 58.3066L19.4941 58.5117C19.4941 59.2956 19.1751 59.9473 18.5371 60.4668C18.0449 60.8678 17.5072 61.0684 16.9238 61.0684ZM16.9238 52.2773V51.3613C17.6074 51.3522 18.2227 51.6393 18.7695 52.2227C19.2526 52.7513 19.4941 53.3255 19.4941 53.9453L18.6191 54.1777C18.6191 54.0592 18.6146 53.9818 18.6055 53.9453C18.6055 53.8086 18.5781 53.6764 18.5234 53.5488C18.4414 53.321 18.3275 53.1204 18.1816 52.9473C18.0449 52.7741 17.9036 52.6465 17.7578 52.5645C17.6211 52.4824 17.4889 52.4186 17.3613 52.373C17.2337 52.3275 17.1289 52.3001 17.0469 52.291L16.9238 52.2773ZM21.1922 59.0176V55.709C21.1922 55.2897 21.3836 54.875 21.7664 54.4648C22.2221 53.9818 22.7964 53.7402 23.4891 53.7402V54.6152C22.9148 54.6152 22.5001 54.8568 22.2449 55.3398C22.1447 55.5312 22.0945 55.7135 22.0945 55.8867V58.8398C22.0945 59.1862 22.2586 59.5052 22.5867 59.7969C22.8602 60.0247 23.1655 60.1387 23.5027 60.1387V61.0137C22.6551 61.0137 21.9988 60.6719 21.534 59.9883C21.3061 59.6419 21.1922 59.3184 21.1922 59.0176ZM24.077 61.0137V60.1387C24.6056 60.1387 25.0021 59.9017 25.2664 59.4277C25.3667 59.2272 25.4168 59.0404 25.4168 58.8672V55.8867C25.4168 55.5039 25.2527 55.1758 24.9246 54.9023C24.6785 54.7109 24.396 54.6152 24.077 54.6152V53.7402C24.9064 53.7402 25.5398 54.0775 25.9773 54.752C26.1961 55.0892 26.3055 55.4082 26.3055 55.709V59.0176C26.3055 59.446 26.1232 59.8652 25.7586 60.2754C25.312 60.7585 24.7514 61.0046 24.077 61.0137ZM28.0445 59.0176V55.709C28.0445 55.2897 28.2359 54.875 28.6187 54.4648C29.0745 53.9818 29.6487 53.7402 30.3414 53.7402V54.6152C29.7672 54.6152 29.3525 54.8568 29.0973 55.3398C28.997 55.5312 28.9469 55.7135 28.9469 55.8867V58.8398C28.9469 59.1862 29.1109 59.5052 29.4391 59.7969C29.7125 60.0247 30.0178 60.1387 30.3551 60.1387V61.0137C29.5074 61.0137 28.8512 60.6719 28.3863 59.9883C28.1585 59.6419 28.0445 59.3184 28.0445 59.0176ZM30.9293 61.0137V60.1387C31.4579 60.1387 31.8544 59.9017 32.1187 59.4277C32.219 59.2272 32.2691 59.0404 32.2691 58.8672V55.8867C32.2691 55.5039 32.1051 55.1758 31.777 54.9023C31.5309 54.7109 31.2483 54.6152 30.9293 54.6152V53.7402C31.7587 53.7402 32.3922 54.0775 32.8297 54.752C33.0484 55.0892 33.1578 55.4082 33.1578 55.709V59.0176C33.1578 59.446 32.9755 59.8652 32.6109 60.2754C32.1643 60.7585 31.6038 61.0046 30.9293 61.0137ZM36.5785 61V60.125H37.7953C38.3786 60.125 38.7888 59.9062 39.0258 59.4688C39.1169 59.3138 39.1625 59.1543 39.1625 58.9902V55.7637C39.1625 55.4538 39.0076 55.1758 38.6977 54.9297C38.4151 54.7201 38.0824 54.6152 37.6996 54.6152H36.5102V53.7402H37.6996C38.5837 53.7402 39.2582 54.0775 39.723 54.752C39.9509 55.0892 40.0648 55.4128 40.0648 55.7227V59.0312C40.0648 59.487 39.8689 59.9154 39.477 60.3164C39.0212 60.7721 38.4561 61 37.7816 61H36.5785ZM34.9379 63.5566V53.7402H35.8676V63.5566H34.9379ZM41.8176 59.0176V55.6953C41.8267 55.276 42.0272 54.8659 42.4191 54.4648C42.8749 53.9909 43.4354 53.7493 44.1008 53.7402V54.6016C43.6177 54.6016 43.2303 54.8158 42.9387 55.2441C42.802 55.4447 42.7336 55.6315 42.7336 55.8047V56.8164H46.1652V55.8047C46.1652 55.3672 45.9419 55.0254 45.4953 54.7793C45.2583 54.6426 45.0122 54.5742 44.757 54.5742V53.7402C45.3768 53.7402 45.9328 53.9635 46.425 54.4102C46.826 54.793 47.0311 55.2168 47.0402 55.6816V57.6914H42.7336V59.0176C42.7336 59.2819 42.8931 59.5462 43.2121 59.8105C43.4947 60.0384 43.7954 60.1523 44.1145 60.1523V61C43.3033 61 42.6607 60.6673 42.1867 60.002C41.9406 59.6465 41.8176 59.3184 41.8176 59.0176ZM44.757 61V60.125C45.3312 60.125 45.7687 59.888 46.0695 59.4141C46.1607 59.2773 46.2199 59.1452 46.2473 59.0176L47.0539 59.3184C46.8716 59.9655 46.4797 60.4395 45.8781 60.7402C45.5318 60.9134 45.1581 61 44.757 61ZM48.8613 61V53.7402H49.7773V54.8203C49.9688 54.4284 50.2878 54.1276 50.7344 53.918C51.0078 53.7904 51.2904 53.7266 51.582 53.7266H51.7324L51.5137 54.6016C51.0306 54.6107 50.6022 54.8841 50.2285 55.4219C49.9277 55.8685 49.7773 56.3288 49.7773 56.8027V61H48.8613ZM57.1793 61V51.4297H58.109V61H57.1793ZM58.7652 56.7754V55.9141H60.3922C61.2854 55.9141 61.7958 55.4857 61.9234 54.6289C61.9417 54.474 61.9508 54.3053 61.9508 54.123C61.9508 53.0749 61.5315 52.4733 60.693 52.3184C60.5198 52.2819 60.3329 52.2637 60.1324 52.2637H58.7652V51.4297H60.3785C62.0283 51.5117 62.8577 52.3958 62.8668 54.082C62.8577 55.1849 62.5432 55.9368 61.9234 56.3379C62.4977 56.6022 62.8303 57.1309 62.9215 57.9238C62.9306 57.9694 62.9352 58.0059 62.9352 58.0332L63.1676 61H62.2789L62.0738 58.5664C62.01 57.7461 61.8049 57.222 61.4586 56.9941C61.2125 56.8392 60.8889 56.7663 60.4879 56.7754H58.7652ZM64.7699 59.0176V55.709C64.7699 55.2897 64.9613 54.875 65.3441 54.4648C65.7999 53.9818 66.3741 53.7402 67.0668 53.7402V54.6152C66.4926 54.6152 66.0779 54.8568 65.8227 55.3398C65.7224 55.5312 65.6723 55.7135 65.6723 55.8867V58.8398C65.6723 59.1862 65.8363 59.5052 66.1645 59.7969C66.4379 60.0247 66.7432 60.1387 67.0805 60.1387V61.0137C66.2328 61.0137 65.5766 60.6719 65.1117 59.9883C64.8839 59.6419 64.7699 59.3184 64.7699 59.0176ZM67.6547 61.0137V60.1387C68.1833 60.1387 68.5798 59.9017 68.8441 59.4277C68.9444 59.2272 68.9945 59.0404 68.9945 58.8672V55.8867C68.9945 55.5039 68.8305 55.1758 68.5023 54.9023C68.2562 54.7109 67.9737 54.6152 67.6547 54.6152V53.7402C68.4841 53.7402 69.1176 54.0775 69.5551 54.752C69.7738 55.0892 69.8832 55.4082 69.8832 55.709V59.0176C69.8832 59.446 69.7009 59.8652 69.3363 60.2754C68.8897 60.7585 68.3292 61.0046 67.6547 61.0137ZM71.5949 59.3047C71.5949 59.7969 71.8365 60.2161 72.3195 60.5625C72.7297 60.8451 73.2128 60.9863 73.7687 60.9863V60.1387C73.0305 60.1387 72.593 59.888 72.4562 59.3867C72.4289 59.2865 72.4152 59.1862 72.4152 59.0859V58.6484C72.4243 58.4388 72.479 58.2839 72.5793 58.1836C72.716 58.0469 73.2583 57.8691 74.2062 57.6504C74.9719 57.4681 75.4823 57.3132 75.7375 57.1855V58.9082C75.7375 59.6647 75.3592 60.0703 74.6027 60.125C74.5389 60.1341 74.4797 60.1387 74.425 60.1387V60.9863C75.0721 60.9863 75.578 60.8314 75.9426 60.5215C75.9517 60.5124 75.9608 60.5033 75.9699 60.4941C76.2251 60.8223 76.5624 60.9863 76.9816 60.9863V60.125C76.7538 60.1068 76.6353 59.9564 76.6262 59.6738V55.8457C76.6262 55.235 76.3983 54.7155 75.9426 54.2871C75.5324 53.9043 75.0266 53.7129 74.425 53.7129V54.5332C74.8625 54.5332 75.2134 54.7155 75.4777 55.0801C75.6418 55.3079 75.7238 55.5677 75.7238 55.8594V56.1055C75.7329 56.3333 75.1815 56.5885 74.0695 56.8711C73.0305 57.1354 72.4335 57.3086 72.2785 57.3906C71.8319 57.6458 71.604 58.0697 71.5949 58.6621V59.3047ZM71.6906 55.5312L72.4973 55.8457C72.4973 55.3262 72.7206 54.9479 73.1672 54.7109C73.3586 54.6107 73.5637 54.5605 73.7824 54.5605V53.7129C73.1626 53.7129 72.634 53.9316 72.1965 54.3691C71.8501 54.7155 71.6815 55.1029 71.6906 55.5312ZM78.584 59.0176V55.6953C78.584 55.194 78.8164 54.7383 79.2812 54.3281C79.7096 53.9453 80.1927 53.7539 80.7305 53.7539H82.0293V54.6152H80.7441C80.334 54.6243 79.9876 54.8066 79.7051 55.1621C79.5501 55.3717 79.4727 55.5723 79.4727 55.7637V58.9902C79.4727 59.3366 79.6641 59.6374 80.0469 59.8926C80.2839 60.0475 80.5163 60.125 80.7441 60.125H82.0293V61H80.7715C79.9694 61 79.3496 60.6582 78.9121 59.9746C78.6934 59.6374 78.584 59.3184 78.584 59.0176ZM82.6719 61V51.375H83.6016V61H82.6719Z" fill="#E5E5E5"/>
</svg>
