<svg width="67" height="54" viewBox="0 0 67 54" fill="none" xmlns="http://www.w3.org/2000/svg">
<rect width="67" height="54" fill="#363636"/>
<path d="M13.1602 19.8047V16.2188L15.4453 14.3906H19.3828V39H15.4453V19.8047H13.1602ZM21.7031 20.6836C21.7734 18.8789 22.5352 17.332 23.9883 16.043C25.1836 14.9883 26.543 14.4375 28.0664 14.3906V18.0117C27.3867 18.0117 26.7422 18.3164 26.1328 18.9258C25.5469 19.5352 25.207 20.3438 25.1133 21.3516L21.7031 20.6836ZM22.4414 39V35.168H36.6445V39H22.4414ZM22.4414 33.4453C22.4414 31.3828 23.7773 29.4609 26.4492 27.6797C26.7773 27.4453 27.2461 27.1406 27.8555 26.7656C28.418 26.4141 28.8047 26.168 29.0156 26.0273C29.2031 25.9102 29.4844 25.7227 29.8594 25.4648C31.4531 24.4102 32.4492 23.543 32.8477 22.8633C33.1523 22.3945 33.3047 21.9141 33.3047 21.4219C33.3047 19.7578 32.6133 18.6914 31.2305 18.2227C30.8086 18.082 30.3633 18.0117 29.8945 18.0117V14.3906C33.0352 14.3906 35.1562 15.5977 36.2578 18.0117C36.7031 19.0195 36.9258 20.1445 36.9258 21.3867C36.9258 23.2852 36.2227 24.8906 34.8164 26.2031C34.2539 26.7188 33.5508 27.2578 32.707 27.8203C32.3555 28.0547 31.8047 28.3945 31.0547 28.8398C29.2031 29.918 28.0078 30.8203 27.4688 31.5469C27.0234 32.1562 26.7891 32.7891 26.7656 33.4453H22.4414ZM47.543 39.0352V35.4141C49.2305 35.3438 50.3086 34.6758 50.7773 33.4102C50.918 33.0117 50.9883 32.5781 50.9883 32.1094C50.9883 30.2578 50.0508 29.1211 48.1758 28.6992C47.5664 28.582 46.8867 28.5234 46.1367 28.5234V24.9023C49.1367 24.9023 50.7422 23.918 50.9531 21.9492C50.9766 21.7383 50.9883 21.5391 50.9883 21.3516C50.9883 19.6875 50.2148 18.6328 48.668 18.1875C48.293 18.0938 47.918 18.0352 47.543 18.0117V14.3906C49.7461 14.3906 51.5273 15.1172 52.8867 16.5703C54.0586 17.8125 54.6445 19.3828 54.6445 21.2812C54.6211 23.7656 53.7891 25.582 52.1484 26.7305C53.7891 27.9023 54.6211 29.707 54.6445 32.1445C54.6445 34.8398 53.5547 36.8086 51.375 38.0508C50.2031 38.707 48.9258 39.0352 47.543 39.0352ZM39.2461 32.7422L42.6562 32.0742C42.7969 33.7617 43.5703 34.8281 44.9766 35.2734C45.2344 35.3672 45.4453 35.4141 45.6094 35.4141V39.0352C43.6406 38.9883 42 38.1562 40.6875 36.5391C39.7734 35.3672 39.293 34.1016 39.2461 32.7422ZM39.2461 20.6836C39.3164 18.8789 40.0781 17.332 41.5312 16.043C42.7266 14.9883 44.0859 14.4375 45.6094 14.3906V18.0117C43.8281 18.3164 42.8438 19.3945 42.6562 21.2461C42.6562 21.293 42.6562 21.3281 42.6562 21.3516L39.2461 20.6836Z" fill="#E5E5E5"/>
</svg>
